<?xml version="1.0" encoding="UTF-8" standalone="no"?>
<svg width="17px" height="17px" viewBox="0 0 17 17" version="1.1" xmlns="http://www.w3.org/2000/svg" xmlns:xlink="http://www.w3.org/1999/xlink">
    <g id="Page-1" stroke="none" stroke-width="1" fill="none" fill-rule="evenodd">
        <g id="loading" transform="translate(-4.000000, 0.000000)" fill-rule="nonzero">
            <path d="M10.96688,4.21221324 C6.27245959,4.21221324 2.46687996,8.01779286 2.46687996,12.7122132 C2.46687996,13.264498 2.91459521,13.7122132 3.46687996,13.7122132 C4.01916471,13.7122132 4.46687996,13.264498 4.46687996,12.7122132 C4.46687996,9.12236236 7.37702909,6.21221324 10.96688,6.21221324 C11.5191648,6.21221324 11.96688,5.76449799 11.96688,5.21221324 C11.96688,4.65992849 11.5191648,4.21221324 10.96688,4.21221324 Z" id="blue" fill="#08109f" transform="translate(7.216880, 8.962213) rotate(-50.000000) translate(-7.216880, -8.962213) "></path>
            <path d="M6.55701668,9.91737772 C6.55701668,14.6117981 10.3625963,18.4173777 15.0570167,18.4173777 C15.6093014,18.4173777 16.0570167,17.9696625 16.0570167,17.4173777 C16.0570167,16.865093 15.6093014,16.4173777 15.0570167,16.4173777 C11.4671658,16.4173777 8.55701668,13.5072286 8.55701668,9.91737772 C8.55701668,9.36509297 8.10930143,8.91737772 7.55701668,8.91737772 C7.00473193,8.91737772 6.55701668,9.36509297 6.55701668,9.91737772 Z" id="blue" fill="#0084FB" transform="translate(11.307017, 13.667378) rotate(-32.000000) translate(-11.307017, -13.667378) "></path>
            <path d="M12.5,17 C17.1944204,17 21,13.1944204 21,8.5 C21,3.80557963 17.1944204,0 12.5,0 C11.9477153,0 11.5,0.44771525 11.5,1 C11.5,1.55228475 11.9477153,2 12.5,2 C16.0898509,2 19,4.91014913 19,8.5 C19,12.0898509 16.0898509,15 12.5,15 C11.9477153,15 11.5,15.4477153 11.5,16 C11.5,16.5522847 11.9477153,17 12.5,17 Z" id="blue" fill="#bcbeea"></path>
        </g>
        <animateTransform attributeType="xml" attributeName="transform" type="rotate" from="0 8.5 8.5" to="360 8.5 8.5" begin="0" dur="0.83333s" repeatCount="indefinite" />
    </g>
</svg>
