<?xml version="1.0" encoding="iso-8859-1"?>
<!-- Generator: Adobe Illustrator 19.0.0, SVG Export Plug-In . SVG Version: 6.00 Build 0)  -->
<svg version="1.1" id="Capa_1" xmlns="http://www.w3.org/2000/svg" xmlns:xlink="http://www.w3.org/1999/xlink" x="0px" y="0px"
	 width="40px" height="40px" viewBox="-247.98 -247.98 495.99 540" style="enable-background:new 0 0 40 40;" xml:space="preserve">
<g>
	<g>
		<g transform='translate(-247.98 -247.98) scale(1, -1) translate(0 -495.99)'>
			<path d="M311.958,247.987c0-35.288-28.712-64-64-64c-35.288,0-64,28.712-64,64c0,35.288,28.712,64,64,64
				C283.246,311.987,311.958,283.275,311.958,247.987z M199.958,247.987c0-26.472,21.528-48,48-48s48,21.528,48,48
				c0,26.472-21.528,48-48,48S199.958,274.459,199.958,247.987z"/>
			<path d="M343.958,63.987c-35.288,0-64,28.712-64,64c0,35.288,28.712,64,64,64c14.472,0,28.648-4.968,39.936-13.984l-9.992-12.496
				c-8.576,6.856-18.936,10.488-29.944,10.488c-26.472,0-48-21.528-48-48s21.528-48,48-48s48,21.528,48,48
				c0,10.464-3.304,20.4-9.552,28.744l12.808,9.592c8.336-11.136,12.752-24.392,12.752-38.336
				C407.958,92.699,379.246,63.987,343.958,63.987z"/>
			<path d="M311.958,127.987c0,17.648,14.352,32,32,32s32-14.352,32-32c0-17.648-14.352-32-32-32S311.958,110.339,311.958,127.987z
				 M359.958,127.987c0,8.824-7.176,16-16,16c-8.824,0-16-7.176-16-16c0-8.824,7.176-16,16-16
				C352.782,111.987,359.958,119.163,359.958,127.987z"/>
			<path d="M95.958,151.987c-35.288,0-64,28.712-64,64c0,35.288,28.712,64,64,64c35.288,0,64-28.712,64-64
				C159.958,180.699,131.246,151.987,95.958,151.987z M95.958,263.987c-26.472,0-48-21.528-48-48s21.528-48,48-48
				c26.472,0,48,21.528,48,48S122.43,263.987,95.958,263.987z"/>
			<path d="M95.958,183.987c-17.648,0-32,14.352-32,32c0,17.648,14.352,32,32,32s32-14.352,32-32
				C127.958,198.339,113.606,183.987,95.958,183.987z M95.958,231.987c-8.824,0-16-7.176-16-16c0-8.824,7.176-16,16-16
				c8.824,0,16,7.176,16,16C111.958,224.811,104.782,231.987,95.958,231.987z"/>
			<path d="M223.958,399.987c0,35.288,28.712,64,64,64c35.288,0,64-28.712,64-64c0-35.288-28.712-64-64-64
				C252.67,335.987,223.958,364.699,223.958,399.987z M335.958,399.987c0,26.472-21.528,48-48,48s-48-21.528-48-48s21.528-48,48-48
				S335.958,373.515,335.958,399.987z"/>
			<path d="M255.958,399.987c0,17.648,14.352,32,32,32s32-14.352,32-32s-14.352-32-32-32S255.958,382.339,255.958,399.987z
				 M303.958,399.987c0,8.824-7.176,16-16,16c-8.824,0-16-7.176-16-16c0-8.824,7.176-16,16-16
				C296.782,383.987,303.958,391.163,303.958,399.987z"/>
			<path d="M420.382,69.803l-0.096,0.096c-7.936-10.408-17.968-19.272-29.664-25.832c-38.72-21.728-88.328-13.472-117.976,19.616
				c-13.424,14.992-21.72,33.328-24,53.024c-2.152,18.512-15.08,34.296-33.744,41.176l2.768,7.504l-3.688-7.16
				c-17.352,6.616-37.456,2.224-51.216-11.168c-9.008-8.768-19.64-15.52-31.208-20.136c17.184-16.504,37.736-29.304,60.128-37.256
				l-5.352-15.08c-27.36,9.72-52.192,26.04-72.192,47.232c-4.824-0.944-9.728-1.608-14.712-1.824
				c-1.728-0.072-3.44-0.016-5.152,0.008c29.536-35.536,69.992-59.592,115.688-68.376l-3.024-15.712
				c-54.912,10.552-102.8,41.52-135.232,87.256c-9.152,2.456-17.88,6.24-25.904,11.2C85.886,63.227,161.542,16.995,245.15,16.003
				l-0.184-16C140.638,1.235,47.734,68.251,13.606,166.779c-3.712,6.136-6.784,12.696-9.008,19.656
				c-8.36,26.208-5.224,54.72,8.624,78.232c13.856,23.528,37.152,40.096,63.912,45.448c17.224,3.44,35.024,2.12,51.464-3.84
				c18.624-6.744,38.936-2.536,53.032,10.984l1.192,1.12c14.6,13.528,20.208,33.432,14.296,50.704
				c-4.144,12.088-5.736,24.752-4.88,37.352c-21.944-7.736-42.264-20.024-59.336-36.088l-10.968,11.648
				c20.784,19.56,45.984,34.008,73.152,42.168c0.04,0.152,0.064,0.296,0.104,0.448c1.688,6.36,4.08,12.368,6.952,18.072
				c-44.544-10.4-83.992-35.68-112.44-72.472l-12.656,9.792c34.08,44.072,82.792,72.832,137.432,81.336
				c5.944,7.016,12.84,13.128,20.448,18.192c-81.648-4.544-154.728-51.344-192.856-124.576l-14.192,7.392
				c42.92,82.432,127.256,133.64,220.104,133.64c8.36,0,16.816-0.456,25.152-1.312c5.032,0.824,10.152,1.272,15.32,1.272
				c6.768,0,13.608-0.736,20.424-2.264c25.76-5.768,47.48-21.344,61.152-43.848c13.672-22.512,17.504-48.944,10.76-74.4
				c-3.592-13.576-9.928-25.896-18.832-36.624c-16.688-20.104-23.672-44.464-19.152-66.84c0.2-1,0.384-2,0.552-3.016
				c3.952-23.56,19.464-43.472,42.56-54.632c8.272-4,15.832-9.32,22.632-15.52c4.864,15.872,7.432,32.344,7.432,49.184
				c0,16.344-2.352,32.512-7,48.048l15.328,4.576c5.088-17.024,7.664-34.728,7.664-52.632c0-21.576-3.84-42.608-11.12-62.672
				c0.368-0.496,0.808-0.936,1.168-1.44c3.608-5.032,6.616-10.4,9.152-15.952c10.968,25.112,16.8,52.44,16.8,80.056
				c0,29.648-6.344,58.184-18.856,84.832l14.488,6.808c13.52-28.792,20.376-59.624,20.376-91.64c0-35.688-8.928-70.968-25.736-102.2
				c1.8-9.544,2.2-19.36,1.048-29.12c26.464,38.312,40.696,83.624,40.696,131.32c0,48.136-14.64,94.32-42.328,133.552l13.072,9.224
				c29.608-41.944,45.256-91.32,45.256-142.776C495.958,180.243,469.118,116.955,420.382,69.803z M408.998,174.563
				c-7.76,10.832-18.152,19.592-30.064,25.344c-27.424,13.24-46.632,38.064-51.384,66.392c-0.144,0.848-0.296,1.68-0.456,2.504
				c-5.48,27.128,2.728,56.368,22.52,80.216c7.408,8.928,12.68,19.184,15.672,30.496c5.616,21.216,2.432,43.24-8.968,62
				c-11.392,18.752-29.496,31.736-50.976,36.544c-41.36,9.248-83.832-16.56-94.72-57.56c-4.064-15.32-3.512-31.312,1.6-46.24
				c7.968-23.248,0.688-49.8-18.552-67.632l-0.992-0.936c-12.688-12.176-29.2-18.608-46.184-18.608c-7.8,0-15.696,1.36-23.368,4.144
				c-13.68,4.96-28.512,6.072-42.872,3.192c-22.304-4.464-41.712-18.272-53.264-37.88c-11.704-19.88-14.248-43.048-7.168-65.248
				c10.704-33.536,44.008-56.736,78.912-55.312c20.016,0.848,38.784,8.856,52.856,22.544c18.2,17.704,44.912,23.464,68.064,14.648
				l-2.84-7.48l3.616,7.184c24.352-8.984,41.248-29.808,44.096-54.344c1.904-16.4,8.832-31.68,20.032-44.2
				c24.672-27.552,65.992-34.416,98.224-16.336c20.304,11.384,34.24,30.048,39.248,52.544
				C426.982,132.771,422.23,156.091,408.998,174.563z"/>
			<path d="M417.574,406.203l11.704,10.904c3.936-4.224,7.752-8.608,11.344-13.032l-12.432-10.08
				C424.83,398.131,421.262,402.243,417.574,406.203z"/>
			<path d="M277.894,1.843c-5.4-0.648-10.84-1.152-16.336-1.464l-0.912,15.976c5.16,0.296,10.28,0.76,15.344,1.368L277.894,1.843z"
				/>
			<path d="M29.942,327.475l-15.032,5.48c1.976,5.416,4.176,10.856,6.552,16.168l14.608-6.528
				C33.846,337.627,31.79,332.539,29.942,327.475z"/>
			<path d="M435.67,354.859l-13.896-7.928c-2.752,4.832-5.768,9.624-8.952,14.256l13.184,9.064
				C429.446,365.251,432.694,360.075,435.67,354.859z"/>
			<path d="M224.462,49.403c5.312-0.624,10.728-1.032,16.112-1.232l-0.584-15.992c-5.808,0.216-11.656,0.664-17.384,1.336
				L224.462,49.403z"/>
			<path d="M72.862,344.643l-14,7.744c2.8,5.064,5.864,10.12,9.12,15.008l13.328-8.848
				C78.294,354.011,75.454,349.331,72.862,344.643z"/>
			<path d="M205.406,85.459c4.912-1.28,9.92-2.352,14.896-3.168l-2.608-15.792c-5.456,0.904-10.952,2.072-16.328,3.48
				L205.406,85.459z"/>
			<path d="M122.302,359.443c-3.552-4.008-6.96-8.232-10.112-12.552l-12.92,9.44c3.456,4.728,7.176,9.344,11.064,13.736
				L122.302,359.443z"/>
			<path d="M403.862,310.603c-2.064,5.112-4.408,10.192-6.968,15.096l14.176,7.408c2.808-5.36,5.368-10.92,7.624-16.52
				L403.862,310.603z"/>
		</g>
	</g>
	<animateTransform attributeType="xml" attributeName="transform" type="rotate" from="0 10 10" to="360 10 10" begin="0" dur="0.83333s" repeatCount="indefinite" />
</g>
</svg>
